<svg width="214" height="87" viewBox="0 0 214 87" fill="none" xmlns="http://www.w3.org/2000/svg">
<g clip-path="url(#clip0_1_11)">
<path d="M59.7333 29.9838C59.7329 28.8599 59.4925 27.8668 59.0064 27.0147C58.5289 26.1763 57.8138 25.4737 56.8547 24.9183C48.9372 20.3531 41.0121 15.8018 33.0972 11.2319C30.9634 9.99998 28.8945 10.0451 26.7765 11.2947C23.6251 13.153 7.84718 22.1925 3.14557 24.9157C1.20931 26.0369 0.267132 27.7523 0.266666 29.9817C0.263641 39.1627 0.266666 48.3437 0.263641 57.5247C0.263641 58.624 0.494242 59.598 0.958935 60.4374C1.43666 61.3009 2.16174 62.0227 3.14301 62.5907C7.84485 65.314 23.6248 74.3528 26.7755 76.2118C28.8945 77.462 30.9634 77.5067 33.0979 76.2746C41.013 71.7045 48.9386 67.1532 56.8572 62.5879C57.8385 62.0202 58.5636 61.2979 59.0413 60.435C59.5053 59.5955 59.7364 58.6216 59.7364 57.5222C59.7364 57.5222 59.7364 39.1651 59.7333 29.9838Z" fill="#A179DC"/>
<path d="M30.091 43.6638L0.958939 60.4374C1.43666 61.3009 2.16174 62.0227 3.14302 62.5908C7.84486 65.314 23.6249 74.3528 26.7755 76.2118C28.8945 77.4621 30.9634 77.5068 33.0979 76.2746C41.013 71.7045 48.9386 67.1532 56.8572 62.588C57.8385 62.0202 58.5636 61.2979 59.0413 60.4351L30.091 43.6638Z" fill="#280068"/>
<path d="M59.7333 29.9839C59.7329 28.86 59.4925 27.8668 59.0064 27.0147L30.091 43.664L59.0413 60.4351C59.5053 59.5955 59.7359 58.6217 59.7364 57.5222C59.7364 57.5222 59.7364 39.1651 59.7333 29.9839" fill="#390091"/>
<path d="M47.2429 37.3933V40.5287H50.3783V37.3933H51.9459V40.5287H55.0813V42.0964H51.9459V45.2315H55.0813V46.7991H51.9459V49.9345H50.3783V46.7991H47.2429V49.9345H45.6753V46.7991H42.5402V45.2315H45.6753V42.0964H42.5402V40.5287H45.6753V37.3933H47.2429ZM50.3783 42.0961H47.2429V45.2315H50.3783V42.0961Z" fill="white"/>
<path d="M30.155 21.6473C38.3328 21.6473 45.4726 26.0885 49.2969 32.6901L49.2597 32.6266L39.6378 38.1666C37.7422 34.957 34.2672 32.7909 30.2804 32.7462L30.1547 32.7455C24.0756 32.7455 19.1471 37.674 19.1471 43.7531C19.1451 45.6692 19.6457 47.5523 20.5989 49.2145C22.4963 52.5269 26.0633 54.761 30.155 54.761C34.272 54.761 37.8593 52.4985 39.7469 49.1507L39.7011 49.231L49.3084 54.7966C45.5259 61.3423 38.4838 65.7698 30.4012 65.858L30.155 65.8594C21.9513 65.8594 14.7913 61.3907 10.9765 54.7543C9.1142 51.5145 8.04869 47.7585 8.04869 43.7531C8.04869 31.5446 17.9457 21.6471 30.1547 21.6471L30.155 21.6473Z" fill="white"/>
</g>
<g filter="url(#filter0_d_1_11)">
<path d="M136.552 22.304L125.096 68H112.424L107.112 45.92C106.984 45.4507 106.835 44.768 106.664 43.872C106.493 42.9333 106.28 41.9093 106.024 40.8C105.811 39.648 105.619 38.56 105.448 37.536C105.277 36.4693 105.149 35.616 105.064 34.976C104.979 35.616 104.829 36.4693 104.616 37.536C104.445 38.56 104.253 39.648 104.04 40.8C103.827 41.9093 103.613 42.9333 103.4 43.872C103.229 44.768 103.08 45.4507 102.952 45.92L97.576 68H84.968L73.448 22.304H84.072L89.512 46.304C89.6827 46.944 89.8747 47.7973 90.088 48.864C90.3013 49.888 90.5147 50.9973 90.728 52.192C90.9413 53.344 91.1333 54.4747 91.304 55.584C91.5173 56.6507 91.6667 57.568 91.752 58.336C91.88 57.312 92.0507 56.1387 92.264 54.816C92.52 53.4933 92.776 52.1493 93.032 50.784C93.288 49.4187 93.544 48.1387 93.8 46.944C94.056 45.7493 94.2907 44.7893 94.504 44.064L99.944 22.304H110.12L115.56 44.064C115.688 44.7893 115.88 45.7493 116.136 46.944C116.435 48.1387 116.712 49.44 116.968 50.848C117.267 52.2133 117.523 53.5573 117.736 54.88C117.949 56.2027 118.12 57.3547 118.248 58.336C118.376 57.2693 118.568 55.9893 118.824 54.496C119.123 52.96 119.421 51.4453 119.72 49.952C120.019 48.416 120.275 47.2213 120.488 46.368L125.928 22.304H136.552ZM157.544 22.304C163.389 22.304 167.699 23.584 170.472 26.144C173.288 28.6613 174.696 32.1813 174.696 36.704C174.696 38.752 174.397 40.7147 173.8 42.592C173.203 44.4267 172.2 46.0693 170.792 47.52C169.427 48.9707 167.613 50.1227 165.352 50.976C163.133 51.8293 160.381 52.256 157.096 52.256H153.256V68H142.376V22.304H157.544ZM157.16 31.2H153.256V43.36H156.136C157.629 43.36 158.931 43.1467 160.04 42.72C161.192 42.2933 162.088 41.6107 162.728 40.672C163.368 39.7333 163.688 38.5173 163.688 37.024C163.688 35.1467 163.155 33.7173 162.088 32.736C161.021 31.712 159.379 31.2 157.16 31.2ZM193.441 68H182.689V22.304H209.249V31.136H193.441V41.504H208.097V50.336H193.441V68Z" fill="url(#paint0_linear_1_11)" shape-rendering="crispEdges"/>
</g>
<defs>
<filter id="filter0_d_1_11" x="69.448" y="22.304" width="143.801" height="53.696" filterUnits="userSpaceOnUse" color-interpolation-filters="sRGB">
<feFlood flood-opacity="0" result="BackgroundImageFix"/>
<feColorMatrix in="SourceAlpha" type="matrix" values="0 0 0 0 0 0 0 0 0 0 0 0 0 0 0 0 0 0 127 0" result="hardAlpha"/>
<feOffset dy="4"/>
<feGaussianBlur stdDeviation="2"/>
<feComposite in2="hardAlpha" operator="out"/>
<feColorMatrix type="matrix" values="0 0 0 0 0 0 0 0 0 0 0 0 0 0 0 0 0 0 0.25 0"/>
<feBlend mode="normal" in2="BackgroundImageFix" result="effect1_dropShadow_1_11"/>
<feBlend mode="normal" in="SourceGraphic" in2="effect1_dropShadow_1_11" result="shape"/>
</filter>
<linearGradient id="paint0_linear_1_11" x1="73" y1="0" x2="213" y2="87" gradientUnits="userSpaceOnUse">
<stop stop-color="#5900A6"/>
<stop offset="1" stop-color="#5900A6" stop-opacity="0"/>
</linearGradient>
<clipPath id="clip0_1_11">
<rect width="60" height="67.5068" fill="white" transform="translate(0 10)"/>
</clipPath>
</defs>
</svg>
